<svg width="299" height="46" viewBox="0 0 299 46" fill="none" xmlns="http://www.w3.org/2000/svg">
<path d="M0.869318 6.00888V0.818181H28.1413V6.00888H17.5764V35H11.4343V6.00888H0.869318ZM40.5631 45.1477C38.3934 45.1477 36.5296 44.8529 34.9719 44.2631C33.4141 43.6845 32.1623 42.9057 31.2165 41.9265C30.2707 40.9473 29.6143 39.8625 29.2471 38.6719L34.6881 37.3533C34.9329 37.854 35.289 38.3492 35.7563 38.8388C36.2236 39.3395 36.8523 39.7512 37.6423 40.0739C38.4434 40.4077 39.4504 40.5746 40.6633 40.5746C42.3768 40.5746 43.7955 40.1573 44.9193 39.3228C46.0431 38.4994 46.605 37.1419 46.605 35.2504V30.3935H46.3046C45.993 31.0166 45.5368 31.6564 44.936 32.3129C44.3463 32.9693 43.5618 33.5201 42.5827 33.9652C41.6146 34.4103 40.3962 34.6328 38.9275 34.6328C36.958 34.6328 35.1721 34.171 33.5699 33.2475C31.9787 32.3129 30.7103 30.922 29.7645 29.0749C28.8298 27.2167 28.3625 24.8912 28.3625 22.0984C28.3625 19.2833 28.8298 16.9077 29.7645 14.9716C30.7103 13.0244 31.9843 11.5501 33.5866 10.5486C35.1888 9.5361 36.9747 9.02983 38.9442 9.02983C40.4463 9.02983 41.6814 9.28575 42.6494 9.79758C43.6286 10.2983 44.4075 10.9047 44.9861 11.6168C45.5647 12.3178 46.0042 12.9799 46.3046 13.603H46.6384V9.36364H52.5969V35.4173C52.5969 37.6093 52.0739 39.4229 51.028 40.8583C49.982 42.2937 48.5522 43.3674 46.7385 44.0795C44.9249 44.7917 42.8664 45.1477 40.5631 45.1477ZM40.6132 29.8928C41.8928 29.8928 42.9832 29.5812 43.8845 28.9581C44.7858 28.335 45.4701 27.4393 45.9374 26.271C46.4047 25.1026 46.6384 23.7006 46.6384 22.065C46.6384 20.4516 46.4047 19.0385 45.9374 17.8256C45.4812 16.6128 44.8025 15.6726 43.9012 15.005C43.011 14.3262 41.915 13.9869 40.6132 13.9869C39.2668 13.9869 38.143 14.3374 37.2417 15.0384C36.3405 15.7393 35.6617 16.7018 35.2055 17.9258C34.7493 19.1386 34.5212 20.5183 34.5212 22.065C34.5212 23.6339 34.7493 25.008 35.2055 26.1875C35.6729 27.3558 36.3572 28.2682 37.2584 28.9247C38.1708 29.5701 39.2891 29.8928 40.6132 29.8928ZM58.789 35V9.36364H64.6473V13.6364H64.9143C65.3817 12.1565 66.1828 11.016 67.3177 10.2148C68.4638 9.40258 69.7712 8.99645 71.24 8.99645C71.5738 8.99645 71.9465 9.01314 72.3582 9.04652C72.781 9.06877 73.1315 9.10772 73.4097 9.16335V14.7212C73.1538 14.6322 72.7477 14.5543 72.1913 14.4876C71.6461 14.4097 71.1176 14.3707 70.6057 14.3707C69.5042 14.3707 68.5139 14.61 67.6349 15.0884C66.767 15.5558 66.0827 16.2067 65.5819 17.0412C65.0812 17.8757 64.8309 18.8382 64.8309 19.9286V35H58.789ZM84.3419 35.5174C82.7174 35.5174 81.2542 35.2281 79.9523 34.6495C78.6616 34.0598 77.6379 33.1919 76.8813 32.0458C76.1358 30.8997 75.7631 29.4866 75.7631 27.8065C75.7631 26.36 76.0301 25.1638 76.5642 24.218C77.0983 23.2723 77.8271 22.5156 78.7506 21.9482C79.6742 21.3807 80.7145 20.9523 81.8717 20.663C83.04 20.3626 84.2473 20.1456 85.4935 20.0121C86.9957 19.8563 88.214 19.7172 89.1487 19.5948C90.0834 19.4613 90.7621 19.261 91.1849 18.994C91.6189 18.7158 91.8358 18.2874 91.8358 17.7088V17.6087C91.8358 16.3513 91.4631 15.3777 90.7176 14.6879C89.9721 13.998 88.8983 13.6531 87.4964 13.6531C86.0165 13.6531 84.8426 13.9757 83.9747 14.6211C83.1179 15.2665 82.5393 16.0286 82.2389 16.9077L76.5976 16.1065C77.0426 14.5488 77.777 13.2469 78.8007 12.201C79.8244 11.1439 81.0761 10.3539 82.556 9.83097C84.0359 9.29688 85.6715 9.02983 87.463 9.02983C88.6981 9.02983 89.9276 9.17448 91.1515 9.46378C92.3755 9.75308 93.4938 10.2315 94.5063 10.8991C95.5189 11.5556 96.3311 12.4513 96.9431 13.5863C97.5662 14.7212 97.8778 16.1399 97.8778 17.8423V35H92.0695V31.4783H91.8692C91.502 32.1905 90.9846 32.8581 90.317 33.4812C89.6605 34.0932 88.8316 34.5883 87.8302 34.9666C86.8399 35.3338 85.6771 35.5174 84.3419 35.5174ZM85.9108 31.0778C87.1236 31.0778 88.1751 30.8385 89.0653 30.3601C89.9554 29.8705 90.6397 29.2251 91.1182 28.424C91.6077 27.6229 91.8525 26.7494 91.8525 25.8036V22.7827C91.6634 22.9384 91.3407 23.0831 90.8845 23.2166C90.4394 23.3501 89.9387 23.467 89.3824 23.5671C88.826 23.6673 88.2752 23.7563 87.73 23.8342C87.1848 23.912 86.7119 23.9788 86.3113 24.0344C85.4101 24.1568 84.6034 24.3571 83.8912 24.6353C83.1791 24.9135 82.6172 25.3029 82.2055 25.8036C81.7938 26.2932 81.588 26.9274 81.588 27.7063C81.588 28.819 81.9941 29.6591 82.8064 30.2266C83.6186 30.794 84.6534 31.0778 85.9108 31.0778ZM103.953 35V9.36364H109.728V13.7198H110.028C110.562 12.2511 111.447 11.105 112.682 10.2816C113.917 9.44709 115.391 9.02983 117.105 9.02983C118.841 9.02983 120.304 9.45265 121.495 10.2983C122.696 11.1328 123.542 12.2733 124.032 13.7198H124.299C124.866 12.2956 125.823 11.1606 127.169 10.315C128.527 9.45822 130.135 9.02983 131.993 9.02983C134.352 9.02983 136.277 9.77533 137.768 11.2663C139.259 12.7573 140.004 14.9326 140.004 17.7923V35H133.946V18.7269C133.946 17.1358 133.523 15.973 132.677 15.2386C131.831 14.4931 130.797 14.1204 129.573 14.1204C128.115 14.1204 126.975 14.5766 126.151 15.489C125.339 16.3903 124.933 17.5642 124.933 19.0107V35H119.008V18.4766C119.008 17.1525 118.607 16.0954 117.806 15.3054C117.016 14.5154 115.981 14.1204 114.702 14.1204C113.834 14.1204 113.044 14.3429 112.332 14.788C111.619 15.2219 111.052 15.8395 110.629 16.6406C110.206 17.4306 109.995 18.3542 109.995 19.4112V35H103.953Z" fill="#00A3FF"/>
<path d="M164.977 10.2148C164.821 8.75722 164.165 7.62228 163.008 6.81001C161.862 5.99775 160.371 5.59162 158.535 5.59162C157.244 5.59162 156.137 5.78634 155.213 6.17578C154.29 6.56522 153.583 7.09375 153.094 7.76136C152.604 8.42898 152.354 9.19117 152.343 10.0479C152.343 10.7601 152.504 11.3776 152.827 11.9006C153.16 12.4235 153.611 12.8686 154.178 13.2358C154.746 13.5919 155.375 13.8923 156.064 14.1371C156.754 14.3819 157.45 14.5877 158.151 14.7546L161.355 15.5558C162.646 15.8562 163.887 16.2623 165.077 16.7741C166.279 17.286 167.353 17.9313 168.298 18.7102C169.255 19.4891 170.012 20.4293 170.568 21.5309C171.125 22.6325 171.403 23.9232 171.403 25.4031C171.403 27.4059 170.891 29.1695 169.867 30.6939C168.844 32.2071 167.364 33.3922 165.428 34.2489C163.503 35.0946 161.172 35.5174 158.434 35.5174C155.775 35.5174 153.466 35.1057 151.508 34.2823C149.561 33.4589 148.036 32.2572 146.935 30.6772C145.844 29.0972 145.255 27.1722 145.166 24.9023H151.258C151.347 26.0929 151.714 27.0832 152.359 27.8732C153.005 28.6632 153.845 29.253 154.879 29.6424C155.925 30.0318 157.094 30.2266 158.384 30.2266C159.731 30.2266 160.91 30.0263 161.923 29.6257C162.946 29.214 163.748 28.6465 164.326 27.9233C164.905 27.1889 165.2 26.3321 165.211 25.353C165.2 24.4628 164.938 23.7285 164.426 23.1499C163.914 22.5601 163.197 22.0705 162.273 21.6811C161.361 21.2805 160.293 20.9245 159.069 20.6129L155.18 19.6115C152.365 18.8883 150.139 17.7923 148.504 16.3235C146.879 14.8436 146.067 12.8797 146.067 10.4318C146.067 8.41785 146.612 6.65424 147.703 5.14098C148.804 3.62772 150.301 2.45383 152.192 1.61932C154.084 0.773673 156.226 0.350851 158.618 0.350851C161.044 0.350851 163.169 0.773673 164.994 1.61932C166.83 2.45383 168.271 3.6166 169.317 5.1076C170.363 6.58747 170.902 8.28989 170.936 10.2148H164.977ZM188.006 35.5007C185.435 35.5007 183.215 34.9666 181.346 33.8984C179.488 32.8191 178.058 31.2947 177.057 29.3253C176.055 27.3447 175.555 25.0136 175.555 22.332C175.555 19.695 176.055 17.3806 177.057 15.3888C178.069 13.386 179.482 11.8282 181.296 10.7156C183.11 9.59174 185.241 9.02983 187.688 9.02983C189.268 9.02983 190.76 9.28575 192.161 9.79758C193.575 10.2983 194.821 11.0772 195.9 12.1342C196.991 13.1913 197.847 14.5376 198.47 16.1733C199.094 17.7978 199.405 19.7339 199.405 21.9815V23.8342H178.392V19.7617H193.614C193.602 18.6045 193.352 17.5753 192.862 16.674C192.373 15.7616 191.689 15.0439 190.81 14.521C189.942 13.998 188.929 13.7365 187.772 13.7365C186.537 13.7365 185.452 14.0369 184.517 14.6378C183.583 15.2275 182.854 16.0064 182.331 16.9744C181.819 17.9313 181.558 18.9828 181.546 20.1289V23.6839C181.546 25.175 181.819 26.4545 182.364 27.5227C182.909 28.5798 183.672 29.392 184.651 29.9595C185.63 30.5159 186.776 30.794 188.089 30.794C188.968 30.794 189.764 30.6716 190.476 30.4268C191.188 30.1709 191.805 29.7982 192.328 29.3086C192.851 28.819 193.246 28.2126 193.513 27.4893L199.155 28.1236C198.799 29.6146 198.12 30.9164 197.119 32.0291C196.128 33.1307 194.86 33.9875 193.313 34.5994C191.766 35.2003 189.997 35.5007 188.006 35.5007ZM211.894 35.5174C210.269 35.5174 208.806 35.2281 207.504 34.6495C206.213 34.0598 205.19 33.1919 204.433 32.0458C203.688 30.8997 203.315 29.4866 203.315 27.8065C203.315 26.36 203.582 25.1638 204.116 24.218C204.65 23.2723 205.379 22.5156 206.302 21.9482C207.226 21.3807 208.266 20.9523 209.423 20.663C210.592 20.3626 211.799 20.1456 213.045 20.0121C214.547 19.8563 215.766 19.7172 216.7 19.5948C217.635 19.4613 218.314 19.261 218.737 18.994C219.171 18.7158 219.388 18.2874 219.388 17.7088V17.6087C219.388 16.3513 219.015 15.3777 218.269 14.6879C217.524 13.998 216.45 13.6531 215.048 13.6531C213.568 13.6531 212.394 13.9757 211.526 14.6211C210.67 15.2665 210.091 16.0286 209.791 16.9077L204.149 16.1065C204.594 14.5488 205.329 13.2469 206.352 12.201C207.376 11.1439 208.628 10.3539 210.108 9.83097C211.588 9.29688 213.223 9.02983 215.015 9.02983C216.25 9.02983 217.479 9.17448 218.703 9.46378C219.927 9.75308 221.046 10.2315 222.058 10.8991C223.071 11.5556 223.883 12.4513 224.495 13.5863C225.118 14.7212 225.43 16.1399 225.43 17.8423V35H219.621V31.4783H219.421C219.054 32.1905 218.536 32.8581 217.869 33.4812C217.212 34.0932 216.383 34.5883 215.382 34.9666C214.392 35.3338 213.229 35.5174 211.894 35.5174ZM213.463 31.0778C214.675 31.0778 215.727 30.8385 216.617 30.3601C217.507 29.8705 218.191 29.2251 218.67 28.424C219.16 27.6229 219.404 26.7494 219.404 25.8036V22.7827C219.215 22.9384 218.892 23.0831 218.436 23.2166C217.991 23.3501 217.49 23.467 216.934 23.5671C216.378 23.6673 215.827 23.7563 215.282 23.8342C214.737 23.912 214.264 23.9788 213.863 24.0344C212.962 24.1568 212.155 24.3571 211.443 24.6353C210.731 24.9135 210.169 25.3029 209.757 25.8036C209.346 26.2932 209.14 26.9274 209.14 27.7063C209.14 28.819 209.546 29.6591 210.358 30.2266C211.17 30.794 212.205 31.0778 213.463 31.0778ZM231.505 35V9.36364H237.363V13.6364H237.63C238.097 12.1565 238.899 11.016 240.034 10.2148C241.18 9.40258 242.487 8.99645 243.956 8.99645C244.29 8.99645 244.662 9.01314 245.074 9.04652C245.497 9.06877 245.847 9.10772 246.126 9.16335V14.7212C245.87 14.6322 245.463 14.5543 244.907 14.4876C244.362 14.4097 243.833 14.3707 243.322 14.3707C242.22 14.3707 241.23 14.61 240.351 15.0884C239.483 15.5558 238.798 16.2067 238.298 17.0412C237.797 17.8757 237.547 18.8382 237.547 19.9286V35H231.505ZM260.266 35.5007C257.707 35.5007 255.51 34.9388 253.674 33.815C251.849 32.6912 250.441 31.139 249.451 29.1584C248.472 27.1667 247.982 24.8745 247.982 22.282C247.982 19.6783 248.483 17.3806 249.484 15.3888C250.486 13.386 251.899 11.8282 253.724 10.7156C255.56 9.59174 257.729 9.02983 260.233 9.02983C262.314 9.02983 264.155 9.41371 265.758 10.1815C267.371 10.9381 268.656 12.0118 269.613 13.4027C270.57 14.7824 271.115 16.3958 271.249 18.2429H265.474C265.24 17.0078 264.684 15.9786 263.805 15.1552C262.937 14.3207 261.774 13.9034 260.316 13.9034C259.081 13.9034 257.997 14.2372 257.062 14.9048C256.127 15.5613 255.398 16.5071 254.875 17.7422C254.364 18.9773 254.108 20.4571 254.108 22.1818C254.108 23.9287 254.364 25.4309 254.875 26.6882C255.387 27.9344 256.105 28.8969 257.028 29.5756C257.963 30.2433 259.059 30.5771 260.316 30.5771C261.207 30.5771 262.002 30.4102 262.703 30.0763C263.415 29.7314 264.011 29.2363 264.489 28.5909C264.968 27.9455 265.296 27.1611 265.474 26.2376H271.249C271.104 28.0513 270.57 29.6591 269.646 31.0611C268.723 32.4519 267.466 33.5424 265.874 34.3324C264.283 35.1113 262.414 35.5007 260.266 35.5007ZM282.252 19.9787V35H276.21V0.818181H282.118V13.7198H282.419C283.02 12.2733 283.949 11.1328 285.206 10.2983C286.474 9.45265 288.088 9.02983 290.046 9.02983C291.826 9.02983 293.379 9.40258 294.703 10.1481C296.027 10.8936 297.051 11.984 297.774 13.4194C298.508 14.8548 298.875 16.6072 298.875 18.6768V35H292.833V19.6115C292.833 17.8868 292.388 16.546 291.498 15.5891C290.619 14.6211 289.384 14.1371 287.793 14.1371C286.725 14.1371 285.768 14.3707 284.922 14.8381C284.088 15.2943 283.431 15.9563 282.953 16.8242C282.485 17.6921 282.252 18.7436 282.252 19.9787Z" fill="#3F474B"/>
</svg>
